HIERARCHY
ROOT mixamorig:Hips
{
	OFFSET 0.000000 201.639420 0.000000
	CHANNELS 6 Xposition Yposition Zposition Xrotation Yrotation Zrotation
	JOINT mixamorig:Spine
	{
		OFFSET 0.006200 19.524994 -2.481800
		CHANNELS 3 Xrotation Yrotation Zrotation
		JOINT mixamorig:Spine1
		{
			OFFSET -0.000900 22.835007 -2.825400
			CHANNELS 3 Xrotation Yrotation Zrotation
			JOINT mixamorig:Spine2
			{
				OFFSET -0.020600 26.552490 -3.193300
				CHANNELS 3 Xrotation Yrotation Zrotation
				JOINT mixamorig:Neck
				{
					OFFSET -0.060000 30.701813 1.352200
					CHANNELS 3 Xrotation Yrotation Zrotation
					JOINT mixamorig:Head
					{
						OFFSET -0.087200 22.547607 3.670900
						CHANNELS 3 Xrotation Yrotation Zrotation
						JOINT mixamorig:HeadTop_End
						{
							OFFSET -0.830600 40.355194 7.893500
							CHANNELS 3 Xrotation Yrotation Zrotation
							End Site
							{
								OFFSET 0.000000 30.592346 0.000000
							}
						}
						JOINT mixamorig:RightEye
						{
							OFFSET -6.302100 18.118591 16.197100
							CHANNELS 3 Xrotation Yrotation Zrotation
							End Site
							{
								OFFSET 0.000000 30.592346 0.000000
							}
						}
						JOINT mixamorig:LeftEye
						{
							OFFSET 6.741500 18.382690 16.401899
							CHANNELS 3 Xrotation Yrotation Zrotation
							End Site
							{
								OFFSET 0.000000 30.592346 0.000000
							}
						}
					}
				}
				JOINT mixamorig:LeftShoulder
				{
					OFFSET 11.924900 18.230499 1.425400
					CHANNELS 3 Xrotation Yrotation Zrotation
					JOINT mixamorig:LeftArm
					{
						OFFSET 25.435989 -0.697632 -5.229300
						CHANNELS 3 Xrotation Yrotation Zrotation
						JOINT mixamorig:LeftForeArm
						{
							OFFSET 54.684776 0.000000 0.000000
							CHANNELS 3 Xrotation Yrotation Zrotation
							JOINT mixamorig:LeftHand
							{
								OFFSET 55.098175 0.000000 0.000000
								CHANNELS 3 Xrotation Yrotation Zrotation
								JOINT mixamorig:LeftHandMiddle1
								{
									OFFSET 23.369751 0.000000 0.000000
									CHANNELS 3 Xrotation Yrotation Zrotation
									JOINT mixamorig:LeftHandMiddle2
									{
										OFFSET 6.378677 0.000000 0.000000
										CHANNELS 3 Xrotation Yrotation Zrotation
										JOINT mixamorig:LeftHandMiddle3
										{
											OFFSET 6.148331 0.000000 0.000000
											CHANNELS 3 Xrotation Yrotation Zrotation
											JOINT mixamorig:LeftHandMiddle4
											{
												OFFSET 6.582504 0.000000 0.000000
												CHANNELS 3 Xrotation Yrotation Zrotation
												End Site
												{
													OFFSET -1.168900 6.395691 1.028606
												}
											}
										}
									}
								}
								JOINT mixamorig:LeftHandThumb1
								{
									OFFSET 7.235672 -3.848206 5.434273
									CHANNELS 3 Xrotation Yrotation Zrotation
									JOINT mixamorig:LeftHandThumb2
									{
										OFFSET 6.568451 -3.792297 3.792300
										CHANNELS 3 Xrotation Yrotation Zrotation
										JOINT mixamorig:LeftHandThumb3
										{
											OFFSET 6.063080 -3.500519 3.500518
											CHANNELS 3 Xrotation Yrotation Zrotation
											JOINT mixamorig:LeftHandThumb4
											{
												OFFSET 4.793182 -2.767334 2.767349
												CHANNELS 3 Xrotation Yrotation Zrotation
												End Site
												{
													OFFSET 0.101639 6.054260 1.275483
												}
											}
										}
									}
								}
								JOINT mixamorig:LeftHandIndex1
								{
									OFFSET 23.101074 -0.309540 4.992809
									CHANNELS 3 Xrotation Yrotation Zrotation
									JOINT mixamorig:LeftHandIndex2
									{
										OFFSET 6.226883 0.000000 0.000000
										CHANNELS 3 Xrotation Yrotation Zrotation
										JOINT mixamorig:LeftHandIndex3
										{
											OFFSET 6.094330 0.000000 0.000000
											CHANNELS 3 Xrotation Yrotation Zrotation
											JOINT mixamorig:LeftHandIndex4
											{
												OFFSET 5.482605 0.000000 0.000000
												CHANNELS 3 Xrotation Yrotation Zrotation
												End Site
												{
													OFFSET -1.427902 5.233032 0.797164
												}
											}
										}
									}
								}
								JOINT mixamorig:LeftHandRing1
								{
									OFFSET 22.299240 0.021149 -3.964172
									CHANNELS 3 Xrotation Yrotation Zrotation
									JOINT mixamorig:LeftHandRing2
									{
										OFFSET 6.321869 0.000000 0.000000
										CHANNELS 3 Xrotation Yrotation Zrotation
										JOINT mixamorig:LeftHandRing3
										{
											OFFSET 5.899796 0.000000 0.000000
											CHANNELS 3 Xrotation Yrotation Zrotation
											JOINT mixamorig:LeftHandRing4
											{
												OFFSET 6.517899 0.000000 0.000000
												CHANNELS 3 Xrotation Yrotation Zrotation
												End Site
												{
													OFFSET -1.637299 6.232208 0.980890
												}
											}
										}
									}
								}
								JOINT mixamorig:LeftHandPinky1
								{
									OFFSET 20.463791 -0.302338 -8.562233
									CHANNELS 3 Xrotation Yrotation Zrotation
									JOINT mixamorig:LeftHandPinky2
									{
										OFFSET 6.908646 0.000000 0.000000
										CHANNELS 3 Xrotation Yrotation Zrotation
										JOINT mixamorig:LeftHandPinky3
										{
											OFFSET 4.622849 0.000000 0.000000
											CHANNELS 3 Xrotation Yrotation Zrotation
											JOINT mixamorig:LeftHandPinky4
											{
												OFFSET 5.216080 0.000000 0.000000
												CHANNELS 3 Xrotation Yrotation Zrotation
												End Site
												{
													OFFSET -0.606308 5.116241 0.814926
												}
											}
										}
									}
								}
							}
						}
					}
				}
				JOINT mixamorig:RightShoulder
				{
					OFFSET -12.001300 18.284088 1.348900
					CHANNELS 3 Xrotation Yrotation Zrotation
					JOINT mixamorig:RightArm
					{
						OFFSET -25.308500 -0.751312 -5.164599
						CHANNELS 3 Xrotation Yrotation Zrotation
						JOINT mixamorig:RightForeArm
						{
							OFFSET -54.684429 0.000000 0.000000
							CHANNELS 3 Xrotation Yrotation Zrotation
							JOINT mixamorig:RightHand
							{
								OFFSET -55.150291 0.000000 0.000000
								CHANNELS 3 Xrotation Yrotation Zrotation
								JOINT mixamorig:RightHandMiddle1
								{
									OFFSET -23.317566 0.000000 0.000000
									CHANNELS 3 Xrotation Yrotation Zrotation
									JOINT mixamorig:RightHandMiddle2
									{
										OFFSET -6.378403 0.000000 0.000000
										CHANNELS 3 Xrotation Yrotation Zrotation
										JOINT mixamorig:RightHandMiddle3
										{
											OFFSET -6.148193 0.000000 0.000000
											CHANNELS 3 Xrotation Yrotation Zrotation
											JOINT mixamorig:RightHandMiddle4
											{
												OFFSET -6.583389 0.000000 0.000000
												CHANNELS 3 Xrotation Yrotation Zrotation
												End Site
												{
													OFFSET 1.171692 6.395905 1.029786
												}
											}
										}
									}
								}
								JOINT mixamorig:RightHandThumb1
								{
									OFFSET -7.190521 -3.860474 5.435846
									CHANNELS 3 Xrotation Yrotation Zrotation
									JOINT mixamorig:RightHandThumb2
									{
										OFFSET -6.567429 -3.791718 3.791708
										CHANNELS 3 Xrotation Yrotation Zrotation
										JOINT mixamorig:RightHandThumb3
										{
											OFFSET -6.062469 -3.500153 3.500166
											CHANNELS 3 Xrotation Yrotation Zrotation
											JOINT mixamorig:RightHandThumb4
											{
												OFFSET -4.792618 -2.767029 2.767022
												CHANNELS 3 Xrotation Yrotation Zrotation
												End Site
												{
													OFFSET -0.100327 6.053253 1.276754
												}
											}
										}
									}
								}
								JOINT mixamorig:RightHandIndex1
								{
									OFFSET -23.048981 -0.310791 4.992554
									CHANNELS 3 Xrotation Yrotation Zrotation
									JOINT mixamorig:RightHandIndex2
									{
										OFFSET -6.227539 0.000000 0.000000
										CHANNELS 3 Xrotation Yrotation Zrotation
										JOINT mixamorig:RightHandIndex3
										{
											OFFSET -6.095047 0.000000 0.000000
											CHANNELS 3 Xrotation Yrotation Zrotation
											JOINT mixamorig:RightHandIndex4
											{
												OFFSET -5.484772 0.000000 0.000000
												CHANNELS 3 Xrotation Yrotation Zrotation
												End Site
												{
													OFFSET 1.420593 5.237305 0.797056
												}
											}
										}
									}
								}
								JOINT mixamorig:RightHandRing1
								{
									OFFSET -22.246323 0.020569 -3.963762
									CHANNELS 3 Xrotation Yrotation Zrotation
									JOINT mixamorig:RightHandRing2
									{
										OFFSET -6.322128 0.000000 0.000000
										CHANNELS 3 Xrotation Yrotation Zrotation
										JOINT mixamorig:RightHandRing3
										{
											OFFSET -5.900024 0.000000 0.000000
											CHANNELS 3 Xrotation Yrotation Zrotation
											JOINT mixamorig:RightHandRing4
											{
												OFFSET -6.518356 0.000000 0.000000
												CHANNELS 3 Xrotation Yrotation Zrotation
												End Site
												{
													OFFSET 1.636398 6.232697 0.982186
												}
											}
										}
									}
								}
								JOINT mixamorig:RightHandPinky1
								{
									OFFSET -20.411011 -0.303314 -8.561701
									CHANNELS 3 Xrotation Yrotation Zrotation
									JOINT mixamorig:RightHandPinky2
									{
										OFFSET -6.907349 0.000000 0.000000
										CHANNELS 3 Xrotation Yrotation Zrotation
										JOINT mixamorig:RightHandPinky3
										{
											OFFSET -4.623840 0.000000 0.000000
											CHANNELS 3 Xrotation Yrotation Zrotation
											JOINT mixamorig:RightHandPinky4
											{
												OFFSET -5.218353 0.000000 0.000000
												CHANNELS 3 Xrotation Yrotation Zrotation
												End Site
												{
													OFFSET 0.602097 5.118835 0.816273
												}
											}
										}
									}
								}
							}
						}
					}
				}
			}
		}
	}
	JOINT mixamorig:LeftUpLeg
	{
		OFFSET 18.168400 -13.561905 -0.039000
		CHANNELS 3 Xrotation Yrotation Zrotation
		JOINT mixamorig:LeftLeg
		{
			OFFSET 0.577358 -80.825211 -3.695000
			CHANNELS 3 Xrotation Yrotation Zrotation
			JOINT mixamorig:LeftFoot
			{
				OFFSET -0.577356 -83.370262 -6.520700
				CHANNELS 3 Xrotation Yrotation Zrotation
				JOINT mixamorig:LeftToeBase
				{
					OFFSET 0.750401 -20.798306 25.135401
					CHANNELS 3 Xrotation Yrotation Zrotation
					JOINT mixamorig:LeftToe_End
					{
						OFFSET -0.000500 0.001200 19.917799
						CHANNELS 3 Xrotation Yrotation Zrotation
						End Site
						{
							OFFSET 0.000000 19.917805 0.000000
						}
					}
				}
			}
		}
	}
	JOINT mixamorig:RightUpLeg
	{
		OFFSET -18.162500 -13.585098 -0.041000
		CHANNELS 3 Xrotation Yrotation Zrotation
		JOINT mixamorig:RightLeg
		{
			OFFSET -0.595024 -80.945297 -3.631900
			CHANNELS 3 Xrotation Yrotation Zrotation
			JOINT mixamorig:RightFoot
			{
				OFFSET 0.595024 -83.218193 -6.561200
				CHANNELS 3 Xrotation Yrotation Zrotation
				JOINT mixamorig:RightToeBase
				{
					OFFSET -0.753601 -20.807106 25.115000
					CHANNELS 3 Xrotation Yrotation Zrotation
					JOINT mixamorig:RightToe_End
					{
						OFFSET 0.000299 0.001700 19.918200
						CHANNELS 3 Xrotation Yrotation Zrotation
						End Site
						{
							OFFSET 0.000000 19.918203 0.000000
						}
					}
				}
			}
		}
	}
}
MOTION
Frames: 5
Frame Time: 0.033333
2.678535 119.682648 -2.101572 -0.570769 4.204335 -9.375765 4.018746 3.720270 -1.766715 8.251931 6.771386 -4.731496 8.251940 6.771386 -4.731503 -1.986977 28.311237 6.773725 5.084057 36.051825 -22.849331 0.000001 -0.000000 -0.000000 0.000001 -0.000000 -0.000000 0.000001 -0.000000 -0.000000 1.033538 -15.235032 -11.647805 3.042452 -0.761207 -32.016382 40.133570 -33.388178 -1.908121 12.866396 10.638206 2.322286 1.309907 -1.012405 -8.080152 -0.178483 -0.773446 -14.430086 0.000001 0.000009 0.000000 -0.000000 -0.000001 0.000003 -9.419889 -10.451165 8.422274 2.321135 6.714514 2.170898 0.000013 0.000001 -0.000002 0.000002 -0.000001 0.000001 -1.239081 -9.024524 -4.969434 -0.126833 0.207662 -21.714379 0.000001 -0.000003 0.000004 -0.000001 0.000001 -0.000003 -0.365397 2.944777 -4.498891 -0.505488 -2.597469 -30.199494 0.000004 -0.000008 -0.000005 -0.000003 0.000001 -0.000002 0.029771 5.968253 0.715891 -0.699254 -5.770478 -39.699290 -0.000001 -0.000006 0.000001 -0.000001 -0.000000 0.000000 3.185244 -18.297115 12.806503 12.807462 -13.875000 59.330520 29.940790 40.956888 -3.738877 19.089479 -1.945249 12.311413 -1.142341 -1.774126 0.545298 -0.357887 1.142265 22.116028 -0.000011 -0.000002 -0.000002 -0.000004 0.000000 0.000001 -7.852784 4.769974 -9.664471 -0.642341 -0.093874 -1.289329 -0.000002 -0.000002 -0.000006 -0.000001 -0.000001 -0.000001 -1.233024 0.595995 8.695209 0.120548 -1.119633 16.859793 0.000007 0.000003 0.000010 0.000002 -0.000003 0.000001 1.909937 -0.146219 -2.803246 -0.619903 3.110103 28.344752 0.000004 0.000006 0.000003 -0.000006 -0.000000 0.000000 4.769412 -2.279017 -7.778126 -1.320393 7.677271 37.620194 -0.000006 0.000006 -0.000002 0.000004 0.000000 -0.000001 -81.440471 -12.212943 13.898153 115.384817 8.705381 3.491917 -31.011743 3.962791 -12.105762 -0.921918 1.241061 1.404134 0.000000 -0.000002 -0.000000 -63.378350 9.846422 -22.966035 106.023838 -1.094986 -0.939679 -25.089182 -7.321278 26.083152 -9.240652 -3.038574 -0.168792 -0.000000 -0.000000 0.000000 
2.699657 119.684143 -2.068984 -0.530803 4.210282 -9.378495 4.010464 3.715649 -1.765844 8.234937 6.762110 -4.728755 8.234935 6.762111 -4.728755 -1.961515 28.352949 6.666009 5.081370 36.036693 -22.765792 -0.000000 0.000000 -0.000000 -0.000000 0.000000 -0.000000 -0.000000 0.000000 -0.000000 1.018290 -15.384834 -11.671210 3.130059 -0.613948 -31.998412 40.157066 -33.422424 -1.934979 12.833476 10.604148 2.361202 1.310628 -1.007241 -8.016524 -0.178485 -0.773446 -14.430089 0.000002 0.000008 0.000003 -0.000000 -0.000001 0.000002 -9.418923 -10.451631 8.419029 2.321128 6.714514 2.170899 0.000010 -0.000000 -0.000002 0.000004 0.000001 0.000002 -1.238325 -9.020201 -4.898254 -0.126832 0.207663 -21.714379 -0.000001 -0.000005 0.000005 -0.000002 0.000001 0.000002 -0.365122 2.948498 -4.454885 -0.505491 -2.597468 -30.199490 0.000001 -0.000008 -0.000007 -0.000002 -0.000002 0.000002 0.035298 5.973102 0.766564 -0.699254 -5.770475 -39.699293 -0.000004 -0.000005 -0.000005 -0.000002 0.000001 -0.000001 3.169468 -18.205152 12.731735 12.862353 -13.921463 59.407647 29.931033 40.882360 -3.744433 19.093917 -1.984753 12.297545 -1.142348 -1.774146 0.545286 -0.357888 1.142266 22.116023 -0.000008 -0.000006 -0.000000 -0.000001 -0.000001 0.000001 -7.852771 4.769969 -9.664450 -0.642340 -0.093878 -1.289331 0.000002 -0.000003 -0.000005 0.000001 -0.000001 -0.000000 -1.233017 0.595980 8.695205 0.120542 -1.119634 16.859794 0.000010 0.000004 0.000008 0.000002 -0.000001 0.000000 1.909916 -0.146216 -2.803235 -0.619904 3.110099 28.344754 0.000003 0.000003 0.000005 -0.000001 0.000002 -0.000002 4.769420 -2.279030 -7.778112 -1.320393 7.677273 37.620190 -0.000007 0.000007 -0.000005 -0.000006 0.000001 -0.000002 -81.476111 -12.202387 13.888699 115.389803 8.704083 3.491712 -31.027046 3.960417 -12.095862 -0.921910 1.241059 1.404140 -0.000000 -0.000002 -0.000000 -63.396614 9.834245 -23.001275 106.023046 -1.097695 -0.940054 -25.112348 -7.311321 26.051240 -9.245037 -3.038578 -0.169240 -0.000000 -0.000002 -0.000000 
2.732576 119.684555 -2.035516 -0.499017 4.236588 -9.388295 4.003387 3.716200 -1.756289 8.220307 6.763319 -4.710186 8.220305 6.763323 -4.710184 -1.801272 28.372368 6.520788 5.041898 36.023131 -22.741987 -0.000002 -0.000000 0.000000 -0.000002 -0.000000 0.000000 -0.000002 -0.000000 0.000000 0.975598 -15.461791 -11.770687 3.170444 -0.536178 -31.902239 40.187597 -33.467022 -1.974895 12.825588 10.639212 2.398151 1.312064 -0.996891 -7.889225 -0.178486 -0.773447 -14.430086 -0.000001 0.000009 -0.000001 0.000001 0.000001 -0.000002 -9.415562 -10.453333 8.407568 2.321126 6.714514 2.170898 0.000014 0.000000 -0.000003 0.000001 0.000000 -0.000002 -1.236097 -9.007280 -4.754703 -0.126830 0.207662 -21.714380 0.000002 -0.000003 0.000005 -0.000002 -0.000000 0.000000 -0.355152 2.954366 -4.352764 -0.505489 -2.597469 -30.199494 0.000001 -0.000009 -0.000003 0.000001 0.000000 -0.000002 0.053675 5.984127 0.890966 -0.699255 -5.770476 -39.699286 -0.000003 -0.000008 -0.000002 0.000002 -0.000002 0.000002 3.159081 -18.210502 12.673957 12.884381 -13.954256 59.461626 29.974589 40.815862 -3.790387 19.161542 -2.045051 12.317898 -1.142351 -1.774128 0.545303 -0.357883 1.142265 22.116021 -0.000005 -0.000006 -0.000000 -0.000002 0.000000 0.000002 -7.852787 4.769962 -9.664440 -0.642339 -0.093875 -1.289330 0.000006 -0.000005 -0.000005 -0.000002 0.000001 0.000001 -1.233012 0.595978 8.695196 0.120548 -1.119631 16.859794 -0.000001 0.000003 0.000010 0.000005 0.000000 -0.000001 1.909907 -0.146210 -2.803236 -0.619901 3.110100 28.344757 0.000005 0.000004 0.000002 0.000001 0.000000 -0.000002 4.769426 -2.279021 -7.778114 -1.320397 7.677267 37.620190 -0.000010 0.000005 -0.000000 -0.000003 0.000001 -0.000004 -81.507632 -12.186683 13.879685 115.401087 8.701621 3.489694 -31.052229 3.947322 -12.070770 -0.921906 1.241064 1.404122 0.000000 0.000000 -0.000000 -63.390555 9.806504 -23.049049 106.018108 -1.080280 -0.946415 -25.137972 -7.308998 26.034260 -9.259023 -3.053273 -0.173076 -0.000000 0.000000 0.000000 
2.775753 119.682571 -2.013278 -0.461442 4.259727 -9.409500 3.996573 3.721762 -1.745831 8.206553 6.774011 -4.690942 8.206551 6.774007 -4.690939 -1.458877 28.369583 6.337051 4.912831 36.053512 -22.782496 -0.000001 0.000000 -0.000000 -0.000001 0.000000 -0.000000 -0.000001 0.000000 -0.000000 0.930202 -15.547228 -11.875407 3.208554 -0.438950 -31.791901 40.215976 -33.561702 -1.999920 12.808047 10.675312 2.437113 1.313153 -0.989098 -7.793452 -0.178483 -0.773445 -14.430088 -0.000001 0.000009 0.000002 0.000002 0.000000 -0.000000 -9.411998 -10.455123 8.395381 2.321125 6.714514 2.170898 0.000011 0.000002 -0.000001 0.000003 -0.000000 -0.000001 -1.234431 -8.997644 -4.646989 -0.126834 0.207662 -21.714379 0.000001 -0.000005 0.000004 0.000000 0.000000 0.000000 -0.343468 2.961291 -4.232470 -0.505493 -2.597468 -30.199494 -0.000001 -0.000005 -0.000010 0.000001 -0.000001 -0.000000 0.076599 5.998352 1.050548 -0.699251 -5.770475 -39.699293 -0.000007 -0.000005 -0.000002 -0.000001 -0.000000 0.000001 3.154706 -18.236549 12.562902 12.873515 -13.925029 59.585293 29.979517 40.631573 -3.804637 19.241148 -2.034061 12.272416 -1.142353 -1.774153 0.545306 -0.357887 1.142267 22.116024 -0.000005 -0.000003 -0.000005 0.000000 -0.000001 0.000001 -7.852788 4.769955 -9.664464 -0.642338 -0.093876 -1.289326 0.000003 -0.000007 -0.000007 0.000001 -0.000000 -0.000001 -1.233032 0.595984 8.695218 0.120550 -1.119632 16.859794 0.000005 0.000005 0.000010 0.000001 -0.000001 0.000000 1.909923 -0.146228 -2.803262 -0.619903 3.110107 28.344756 0.000003 0.000005 0.000004 -0.000002 0.000000 -0.000002 4.769425 -2.279025 -7.778121 -1.320396 7.677268 37.620190 -0.000004 0.000008 -0.000005 -0.000001 -0.000001 0.000000 -81.555491 -12.177817 13.848099 115.414911 8.712496 3.489409 -31.071313 3.935502 -12.044701 -0.921907 1.241067 1.404137 0.000000 0.000003 0.000000 -63.388178 9.798995 -23.062817 106.000267 -1.059915 -0.955500 -25.129919 -7.320668 26.063006 -9.251617 -3.061354 -0.172361 -0.000000 0.000001 -0.000000 
2.807804 119.693130 -2.003373 -0.406956 4.282039 -9.435569 3.984152 3.728032 -1.740552 8.181867 6.785757 -4.681512 8.181870 6.785755 -4.681515 -1.290390 28.367254 6.327675 5.005834 36.091235 -22.912650 0.000001 0.000000 0.000000 0.000001 0.000000 0.000000 0.000001 0.000000 0.000000 0.945062 -15.669871 -11.825215 3.254922 -0.375908 -31.886800 40.182891 -33.520362 -1.973834 12.801127 10.611749 2.471865 1.312780 -0.991683 -7.825259 -0.178483 -0.773446 -14.430088 0.000003 0.000009 0.000002 0.000002 -0.000001 0.000001 -9.410627 -10.455799 8.390751 2.321130 6.714514 2.170901 0.000008 0.000001 -0.000000 0.000004 -0.000002 -0.000000 -1.234994 -9.000879 -4.682877 -0.126832 0.207663 -21.714380 -0.000001 -0.000005 0.000007 -0.000003 -0.000000 -0.000001 -0.334003 2.966924 -4.134871 -0.505487 -2.597471 -30.199490 0.000001 -0.000008 -0.000007 -0.000000 0.000000 0.000001 0.099223 6.012137 1.205605 -0.699258 -5.770478 -39.699290 -0.000004 -0.000007 -0.000001 0.000000 0.000001 -0.000002 3.170896 -18.197680 12.473189 12.861519 -13.898423 59.724602 29.919907 40.385758 -3.765836 19.258012 -1.993068 12.179124 -1.142343 -1.774139 0.545316 -0.357885 1.142267 22.116023 -0.000007 -0.000002 -0.000003 -0.000004 0.000000 -0.000001 -7.852785 4.769969 -9.664431 -0.642343 -0.093876 -1.289326 -0.000002 -0.000007 -0.000007 -0.000002 -0.000001 0.000000 -1.233016 0.595989 8.695217 0.120552 -1.119634 16.859791 0.000010 -0.000000 0.000009 -0.000004 0.000000 -0.000001 1.909922 -0.146218 -2.803238 -0.619907 3.110102 28.344756 0.000008 0.000001 0.000006 -0.000000 -0.000000 0.000001 4.769415 -2.279024 -7.778116 -1.320399 7.677265 37.620187 -0.000005 0.000007 -0.000002 0.000000 0.000001 -0.000002 -81.613391 -12.198445 13.800796 115.411988 8.711305 3.489863 -31.071603 3.931887 -12.035962 -0.921888 1.241069 1.404160 0.000000 -0.000000 0.000000 -63.398581 9.800176 -23.028891 105.977447 -1.098748 -0.961721 -25.113684 -7.344307 26.129160 -9.253746 -3.062888 -0.171617 -0.000000 0.000001 -0.000000 
